<svg xmlns="http://www.w3.org/2000/svg" width="54" height="51" viewBox="0 0 54 51" fill="none">
  <path d="M45.5 14.2462H36.9L35.4 0.486171C35.4 0.406171 35.35 0.366171 35.35 0.286171C35.3 0.166171 35.15 0.0461704 34.95 0.00617043C34.7 -0.0338296 34.4 0.126171 34.4 0.326171L31.45 13.7262L30.7 12.1262C30.65 11.9662 30.45 11.8462 30.25 11.8462C30 11.8462 29.75 12.0062 29.7 12.2062L28.8 20.4862L26.75 1.92617C26.75 1.72617 26.5 1.56617 26.2 1.56617C25.95 1.52617 25.7 1.68617 25.65 1.88617L22.95 14.0862L22.45 9.64617C22.45 9.44617 22.2 9.28617 21.9 9.28617C21.65 9.28617 21.4 9.44617 21.35 9.64617L20.25 19.6062L17.6 7.48617C17.55 7.32617 17.4 7.20617 17.2 7.16617C16.95 7.12617 16.65 7.28617 16.65 7.52617L15.15 14.2462H6.5C6.25 14.2462 6 14.4462 6 14.6462C6 14.8462 6.2 15.0462 6.5 15.0462H15.45L15.5 15.0062C15.75 15.0062 16 14.8862 16.05 14.6862L17.15 9.76617L19.95 22.4862C20 22.6862 20.25 22.8062 20.5 22.8062C20.75 22.8062 21 22.6462 21.05 22.4462L22 13.8062L22.35 16.8862C22.35 17.0862 22.6 17.2462 22.9 17.2462C23.15 17.2862 23.4 17.1262 23.45 16.9262L26.15 4.72617L28.35 25.0062C28.35 25.2062 28.6 25.3662 28.85 25.3662C28.85 25.3662 28.85 25.3662 28.9 25.3662C28.9 25.3662 28.9 25.3662 28.95 25.3662C29.2 25.3662 29.4 25.2062 29.45 25.0062L30.65 14.0462L31.3 15.4462C31.35 15.6062 31.55 15.7262 31.75 15.6862H31.8C32 15.6462 32.2 15.5262 32.25 15.3662L34.9 3.36617L36.15 14.6462C36.15 14.8462 36.4 15.0062 36.7 15.0062V15.0462L36.75 15.0862H45.5C45.75 15.0862 46 14.8862 46 14.6862C46 14.4062 45.8 14.2462 45.5 14.2462Z" fill="#8730AB"/>
  <path d="M45.5 14.2462H36.9L35.4 0.486171C35.4 0.406171 35.35 0.366171 35.35 0.286171C35.3 0.166171 35.15 0.0461704 34.95 0.00617043C34.7 -0.0338296 34.4 0.126171 34.4 0.326171L31.45 13.7262L30.7 12.1262C30.65 11.9662 30.45 11.8462 30.25 11.8462C30 11.8462 29.75 12.0062 29.7 12.2062L28.8 20.4862L26.75 1.92617C26.75 1.72617 26.5 1.56617 26.2 1.56617C25.95 1.52617 25.7 1.68617 25.65 1.88617L22.95 14.0862L22.45 9.64617C22.45 9.44617 22.2 9.28617 21.9 9.28617C21.65 9.28617 21.4 9.44617 21.35 9.64617L20.25 19.6062L17.6 7.48617C17.55 7.32617 17.4 7.20617 17.2 7.16617C16.95 7.12617 16.65 7.28617 16.65 7.52617L15.15 14.2462H6.5C6.25 14.2462 6 14.4462 6 14.6462C6 14.8462 6.2 15.0462 6.5 15.0462H15.45L15.5 15.0062C15.75 15.0062 16 14.8862 16.05 14.6862L17.15 9.76617L19.95 22.4862C20 22.6862 20.25 22.8062 20.5 22.8062C20.75 22.8062 21 22.6462 21.05 22.4462L22 13.8062L22.35 16.8862C22.35 17.0862 22.6 17.2462 22.9 17.2462C23.15 17.2862 23.4 17.1262 23.45 16.9262L26.15 4.72617L28.35 25.0062C28.35 25.2062 28.6 25.3662 28.85 25.3662C28.85 25.3662 28.85 25.3662 28.9 25.3662C28.9 25.3662 28.9 25.3662 28.95 25.3662C29.2 25.3662 29.4 25.2062 29.45 25.0062L30.65 14.0462L31.3 15.4462C31.35 15.6062 31.55 15.7262 31.75 15.6862H31.8C32 15.6462 32.2 15.5262 32.25 15.3662L34.9 3.36617L36.15 14.6462C36.15 14.8462 36.4 15.0062 36.7 15.0062V15.0462L36.75 15.0862H45.5C45.75 15.0862 46 14.8862 46 14.6862C46 14.4062 45.8 14.2462 45.5 14.2462Z" fill="#8730AB"/>
  <path fill-rule="evenodd" clip-rule="evenodd" d="M3.54961 18C3.58637 18.0233 3.78954 18.2378 3.90529 18.6163C4.02332 19.0023 4.10125 19.5256 4.12995 20.1035C4.1949 21.4102 4.04174 23.005 3.90529 24.1364C3.78443 25.5148 4.14713 26.1421 5.30946 27.2314L13.9404 34.9085C14.0322 34.9898 14.1704 35.0404 14.3149 35.056C14.4593 35.0714 14.6055 35.0473 14.7267 34.989C14.8479 34.9306 14.9359 34.836 14.9701 34.7344C15.0044 34.6328 14.9846 34.5178 14.914 34.4262C11.4945 30.02 10.4286 27.0585 10.4019 25.4896C10.3884 24.7052 10.613 24.3245 10.7763 24.257C11.0594 24.4023 11.5047 24.7851 11.881 25.1145L19.3699 32.2959C21.3731 34.0974 21.231 34.3235 21.7663 35.9804L26.3345 49.0839L17.6287 50.9999C16.3257 47.1353 14.8076 42.3564 12.3677 40.2545C8.93958 37.2972 5.70157 34.4631 2.48237 31.7466C0.170167 29.7821 -0.207468 27.1032 0.085949 24.7259C0.421966 22.0034 1.63522 19.7796 1.71478 19.6346C2.34841 18.8524 2.86473 18.3641 3.21254 18.1474C3.38845 18.0377 3.51422 18.0055 3.54961 18Z" fill="#8730AB"/>
  <path fill-rule="evenodd" clip-rule="evenodd" d="M50.4488 18.0001C50.4495 18.0006 50.4668 17.9997 50.4674 18.0001C50.5028 18.0056 50.6099 18.0378 50.7858 18.1475C51.1335 18.3643 51.6686 18.8526 52.3023 19.6347C52.3818 19.7797 53.5763 22.0035 53.9123 24.726C54.2058 27.1033 53.8469 29.7822 51.5346 31.7467C48.3155 34.4632 45.0775 37.2973 41.6493 40.2546C39.2094 42.3565 37.6913 47.1355 36.3883 51L27.6825 49.084L32.2507 35.9805C32.7861 34.3236 32.6439 34.0976 34.6472 32.296L42.1361 25.1146C42.5123 24.7852 42.939 24.4024 43.2219 24.2571C43.3853 24.3246 43.6286 24.7053 43.6152 25.4897C43.5884 27.0587 42.5226 30.0201 39.1031 34.4264C39.0324 34.5179 39.0126 34.6329 39.0469 34.7345C39.0812 34.8361 39.1691 34.9307 39.2903 34.9891C39.4115 35.0475 39.5577 35.0717 39.7022 35.0561C39.8466 35.0406 39.9848 34.9899 40.0766 34.9087L48.7076 27.2315C49.8699 26.1423 50.2139 25.5149 50.093 24.1365C49.9565 23.0051 49.8221 21.4104 49.8871 20.1036C49.9158 19.5257 49.9937 19.0025 50.1118 18.6164C50.2275 18.2379 50.4119 18.0234 50.4488 18.0001Z" fill="#8730AB"/>
</svg>